<svg id="Layer_1" data-name="Layer 1" xmlns="http://www.w3.org/2000/svg" xmlns:xlink="http://www.w3.org/1999/xlink" viewBox="0 0 566.3 119.17"><defs><style>.cls-1,.cls-6,.cls-8{fill:none;}.cls-2{fill:#fff;}.cls-3{fill:#6abc45;}.cls-4{clip-path:url(#clip-path);}.cls-5{fill:#333;}.cls-6,.cls-8{stroke:lime;stroke-miterlimit:10;}.cls-6{stroke-width:1.5px;}.cls-7{fill:#999;}.cls-8{stroke-width:0.75px;}</style><clipPath id="clip-path" transform="translate(-4.9 -12.6)"><rect class="cls-1" x="-37.47" y="-19.79" width="195.42" height="195.42"/></clipPath></defs><g id="Vector_Smart_Object_Image" data-name="Vector Smart Object Image"><path class="cls-2" d="M151.8,66.4H139.3V25.2H127.2V12.6h24.6Z" transform="translate(-4.9 -12.6)"/><path class="cls-2" d="M180.3,66.4H167.8V25.2H155.7V12.6h24.6Z" transform="translate(-4.9 -12.6)"/><path class="cls-2" d="M247.9,25.2H223.7V66.4H211.2V25.2H187V12.6h60.9Z" transform="translate(-4.9 -12.6)"/><path class="cls-2" d="M310.1,25.2H265.4v8.1h41.8V45.9H265.4V54H310V66.6H252.9v-54h57.2Z" transform="translate(-4.9 -12.6)"/><path class="cls-2" d="M372.9,66.4H360.4L328.2,30.2V66.4H315.7V12.6h12.5l32.2,36v-36h12.5Z" transform="translate(-4.9 -12.6)"/><path class="cls-2" d="M439.4,25.2H415.2V66.4H402.7V25.2H378.5V12.6h60.9V25.2Z" transform="translate(-4.9 -12.6)"/><path class="cls-2" d="M501.5,66.4H489V45.8H456.8V66.4H444.3V12.6h12.5V33.2H489V12.6h12.5Z" transform="translate(-4.9 -12.6)"/><path class="cls-2" d="M571.2,49.8a17.49,17.49,0,0,1-4.1,11.6,14.11,14.11,0,0,1-11,5H509.8V53.9h46.3c1.7,0,2.6-1.3,2.6-4s-.9-4-2.6-4H522.4a14.11,14.11,0,0,1-11-5,16.64,16.64,0,0,1-4.2-11.5,17.1,17.1,0,0,1,4.3-11.7,13.81,13.81,0,0,1,10.9-4.9h46.3V25.4H522.3c-1.7,0-2.6,1.4-2.6,4.1s.9,4,2.6,4H556a14.31,14.31,0,0,1,11.1,5A16.35,16.35,0,0,1,571.2,49.8Z" transform="translate(-4.9 -12.6)"/><path class="cls-2" d="M138.6,131.4V104.6h33.5a6.83,6.83,0,0,1,6.7,6.7,6.91,6.91,0,0,1-2,4.8,6,6,0,0,1-2.6,1.6l4.6,13.7h-3.4L170.9,118h-29v13.4Zm33.5-16.8a3.58,3.58,0,0,0,2.4-.9,3.38,3.38,0,0,0,0-4.8,3.1,3.1,0,0,0-2.4-1H141.9v6.7Z" transform="translate(-4.9 -12.6)"/><path class="cls-2" d="M186.3,131.4l17.9-26.8h4.5l17.9,26.8H222l-4.5-6.7H195.1l-4.5,6.7Zm29-10.1-8.9-13.4-9,13.4Z" transform="translate(-4.9 -12.6)"/><path class="cls-2" d="M240.7,131.4a6.8,6.8,0,0,1-4.8-1.9,6.48,6.48,0,0,1-1.9-4.8V111.3a6.41,6.41,0,0,1,1.9-4.7,6.57,6.57,0,0,1,4.8-2h26.8a6.83,6.83,0,0,1,6.7,6.7h-3.4a3.25,3.25,0,0,0-1-2.4,3.1,3.1,0,0,0-2.4-1H240.6a3.25,3.25,0,0,0-2.4,1,3.41,3.41,0,0,0-.9,2.4v13.4a3.1,3.1,0,0,0,3.3,3.3h26.8a3.58,3.58,0,0,0,2.4-.9,3.25,3.25,0,0,0,1-2.4h3.4a6.91,6.91,0,0,1-2,4.8,6.41,6.41,0,0,1-4.7,1.9Z" transform="translate(-4.9 -12.6)"/><path class="cls-2" d="M281.7,131.4V104.6h40.2V108H285v8.4h36.9v3.4H285v8.4h36.9v3.4H281.7Z" transform="translate(-4.9 -12.6)"/><path class="cls-2" d="M336.1,131.4a6.8,6.8,0,0,1-4.8-1.9,6.48,6.48,0,0,1-1.9-4.8V111.3a6.41,6.41,0,0,1,1.9-4.7,6.57,6.57,0,0,1,4.8-2H363a6.83,6.83,0,0,1,6.7,6.7h-3.4a3.25,3.25,0,0,0-1-2.4,3.1,3.1,0,0,0-2.4-1H336.1a3.25,3.25,0,0,0-2.4,1,3.41,3.41,0,0,0-.9,2.4v13.4a3.1,3.1,0,0,0,3.3,3.3H363a3.58,3.58,0,0,0,2.4-.9,3.25,3.25,0,0,0,1-2.4h3.4a6.91,6.91,0,0,1-2,4.8,6.41,6.41,0,0,1-4.7,1.9Z" transform="translate(-4.9 -12.6)"/><path class="cls-2" d="M377.2,131.4V104.6h33.5a6.83,6.83,0,0,1,6.7,6.7,6.91,6.91,0,0,1-2,4.8,6,6,0,0,1-2.6,1.6l4.6,13.7H414L409.5,118h-29v13.4Zm33.5-16.8a3.58,3.58,0,0,0,2.4-.9,3.38,3.38,0,0,0,0-4.8,3.1,3.1,0,0,0-2.4-1H380.5v6.7Z" transform="translate(-4.9 -12.6)"/><path class="cls-2" d="M424.9,131.4l17.9-26.8h4.5l17.9,26.8h-4.5l-4.5-6.7H433.8l-4.5,6.7Zm29-10.1L445,107.9l-9,13.4Z" transform="translate(-4.9 -12.6)"/><path class="cls-2" d="M472.6,131.4V104.6h40.2V108H475.9v8.4h36.9v3.4H475.9v11.7h-3.3Z" transform="translate(-4.9 -12.6)"/><path class="cls-2" d="M538.7,131.4V107.9H520.3v-3.4h40.2v3.4H542.1v23.5Z" transform="translate(-4.9 -12.6)"/><rect class="cls-3" x="122.3" y="69.9" width="443.9" height="4"/></g><g class="cls-4"><g class="cls-4"><path class="cls-5" d="M64.35,13.61A58.71,58.71,0,1,1,5.65,72.32a58.71,58.71,0,0,1,58.7-58.71" transform="translate(-4.9 -12.6)"/><circle class="cls-6" cx="64.35" cy="72.32" r="58.7" transform="translate(-4.99 -12.52) rotate(-0.07)"/><path class="cls-7" d="M63.84,23.56A48.67,48.67,0,1,1,15.17,72.23,48.67,48.67,0,0,1,63.84,23.56" transform="translate(-4.9 -12.6)"/><circle class="cls-8" cx="63.84" cy="72.23" r="48.67" transform="translate(-13.46 123.29) rotate(-89.86)"/></g><g class="cls-4"><path class="cls-5" d="M56,116.58v-9s-26.19-37,0-69.7V27.69A47.22,47.22,0,0,0,23.53,52.44l7.53,5.21V90.83H23.53s7,20.09,32.47,25.75" transform="translate(-4.9 -12.6)"/><path class="cls-8" d="M56,116.58v-9s-26.19-37,0-69.7V27.69A47.22,47.22,0,0,0,23.53,52.44l7.53,5.21V90.83H23.53S30.52,110.92,56,116.58Z" transform="translate(-4.9 -12.6)"/><path class="cls-5" d="M71.6,116.58v-9s26.19-37,0-69.7V27.69a47.22,47.22,0,0,1,32.47,24.75l-7.53,5.21V90.83h7.53s-7,20.09-32.47,25.75" transform="translate(-4.9 -12.6)"/><path class="cls-8" d="M71.6,116.58v-9s26.19-37,0-69.7V27.69a47.22,47.22,0,0,1,32.47,24.75l-7.53,5.21V90.83h7.53S97.08,110.92,71.6,116.58Z" transform="translate(-4.9 -12.6)"/><path class="cls-5" d="M70.17,65v14.6a4.88,4.88,0,0,1-4.85,4.86H62.19a4.87,4.87,0,0,1-4.85-4.86V65a4.86,4.86,0,0,1,4.85-4.85h3.13A4.87,4.87,0,0,1,70.17,65" transform="translate(-4.9 -12.6)"/><rect class="cls-8" x="52.44" y="47.56" width="12.83" height="24.31" rx="4.85"/></g></g></svg>