<svg width="121" height="37" viewBox="0 0 121 37" fill="none" xmlns="http://www.w3.org/2000/svg">
<path fill-rule="evenodd" clip-rule="evenodd" d="M95.2296 15.2125C97.8964 12.0049 100.526 9.03531 102.968 6.61231C107.849 1.76593 112.762 0 119.136 0C119.624 0.000563565 120.121 0.0109896 120.628 0.0312779C114.701 1.46921 108.782 6.78391 104.373 11.0774C102.352 13.0378 99.9584 15.3828 97.536 17.7717L108.342 29.7554H103.164L94.7992 20.4752C89.1708 26.0544 83.1528 32.097 78.3327 37C79.492 35.486 80.7446 33.8292 82.0645 32.0833C86.0736 26.7806 90.704 20.6562 95.2269 15.2159H92.0481C91.8545 15.2158 91.6615 15.2033 91.4705 15.1784C91.0428 15.1231 90.6246 15.0064 90.2294 14.8312C89.6582 14.578 89.1478 14.2082 88.7318 13.7463L83.3868 7.8348H88.5725L88.5728 7.83513H88.575L95.2296 15.2125ZM59.0851 7.8348H79.5155L78.2165 9.73092C77.8093 10.3251 77.2607 10.8115 76.6187 11.1475C75.9767 11.4836 75.261 11.659 74.5344 11.6583H62.9513V29.7555H59.0851V7.8348ZM53.7307 23.3664C53.7307 21.5924 52.9459 20.1099 51.3907 18.9097C52.9459 17.6655 53.7307 16.1374 53.7307 14.3195C53.73 13.2909 53.448 12.2815 52.9147 11.3979C51.4219 9.00279 48.7468 7.80522 44.8895 7.80522H29.4599V29.7259H44.8895C48.7451 29.7214 51.4202 28.5557 52.9147 26.2287C53.4472 25.3664 53.7295 24.3763 53.7307 23.3664ZM35.0969 20.8337L36.4027 18.9376C36.8099 18.3462 37.3574 17.862 37.9976 17.5274C38.6377 17.1928 39.351 17.0178 40.0754 17.0178H45.4701C46.5567 17.0178 47.5157 16.8242 48.3618 16.4362C49.4464 15.9442 49.9887 15.2288 49.9887 14.2899C49.9887 13.3651 49.445 12.6651 48.3618 12.1655C47.5157 11.8079 46.5567 11.6211 45.4701 11.6211H33.2944V25.9024H45.4709C46.5353 25.9024 47.4789 25.746 48.3018 25.4256C49.4278 24.9556 49.993 24.2776 49.993 23.4036C49.993 22.5016 49.427 21.816 48.3018 21.3468C47.4016 20.9934 46.4396 20.8185 45.4709 20.832L35.0969 20.8337ZM11.5565 11.6583H19.127C19.8536 11.659 20.5694 11.4837 21.2113 11.1476C21.8533 10.8116 22.402 10.3251 22.8091 9.73092L24.1081 7.8348H11.5565C8.28716 7.8348 5.60696 8.81879 3.51589 10.7868C1.42482 12.7547 0.377854 15.3435 0.375 18.553C0.375 21.7878 1.4311 24.4648 3.54329 26.5838C5.65548 28.7028 8.3257 29.7611 11.5539 29.7589H24.1046V25.9396H11.5565C9.43574 25.9396 7.68661 25.2861 6.30912 23.9792C4.93163 22.6723 4.2446 20.9704 4.24802 18.8733C4.24802 16.7566 4.93505 15.025 6.30912 13.6787C7.68319 12.3323 9.43231 11.6589 11.5565 11.6583ZM65.033 18.3264L63.728 20.2234H79.2868V16.4066H68.7056C67.9813 16.4067 67.2679 16.5816 66.6278 16.9162C65.9876 17.2508 65.4401 17.735 65.033 18.3264Z" fill="url(#paint0_linear_15801_120836)"/>
<defs>
<linearGradient id="paint0_linear_15801_120836" x1="0.712091" y1="18.2703" x2="120.761" y2="18.2703" gradientUnits="userSpaceOnUse">
<stop offset="0.0663736" stop-color="#3CAEF0"/>
<stop offset="0.484375" stop-color="#0DEFBD"/>
</linearGradient>
</defs>
</svg>
