<svg width="37" height="37" viewBox="0 0 37 37" fill="none" xmlns="http://www.w3.org/2000/svg">
<path fill-rule="evenodd" clip-rule="evenodd" d="M9.19897 18.3491C9.19897 14.754 9.19897 12.9564 10.0557 11.6617C10.4382 11.0835 10.9334 10.5884 11.5115 10.2058C12.8063 9.34912 14.6038 9.34912 18.199 9.34912C21.7941 9.34912 23.5917 9.34912 24.8864 10.2058C25.4646 10.5884 25.9597 11.0835 26.3423 11.6617C27.199 12.9564 27.199 14.754 27.199 18.3491C27.199 21.9443 27.199 23.7418 26.3423 25.0366C25.9597 25.6147 25.4646 26.1099 24.8864 26.4924C23.5917 27.3491 21.7941 27.3491 18.199 27.3491C14.6038 27.3491 12.8063 27.3491 11.5115 26.4924C10.9334 26.1099 10.4382 25.6147 10.0557 25.0366C9.19897 23.7418 9.19897 21.9443 9.19897 18.3491ZM22.8582 18.3493C22.8582 20.9227 20.7721 23.0088 18.1988 23.0088C15.6255 23.0088 13.5394 20.9227 13.5394 18.3493C13.5394 15.776 15.6255 13.6899 18.1988 13.6899C20.7721 13.6899 22.8582 15.776 22.8582 18.3493ZM18.1988 21.4324C19.9015 21.4324 21.2818 20.052 21.2818 18.3493C21.2818 16.6467 19.9015 15.2663 18.1988 15.2663C16.4961 15.2663 15.1158 16.6467 15.1158 18.3493C15.1158 20.052 16.4961 21.4324 18.1988 21.4324ZM23.0422 14.5507C23.6469 14.5507 24.1371 14.0605 24.1371 13.4558C24.1371 12.8512 23.6469 12.361 23.0422 12.361C22.4376 12.361 21.9474 12.8512 21.9474 13.4558C21.9474 14.0605 22.4376 14.5507 23.0422 14.5507Z" fill="#008DF1"/>
</svg>
