<svg width="37" height="37" viewBox="0 0 37 37" fill="none" xmlns="http://www.w3.org/2000/svg">
<path d="M9.19897 11.7692C9.19897 11.192 9.40168 10.7158 9.80708 10.3406C10.2125 9.96542 10.7395 9.77783 11.3882 9.77783C12.0252 9.77783 12.5407 9.96252 12.9345 10.3319C13.3399 10.7129 13.5426 11.2093 13.5426 11.8211C13.5426 12.3752 13.3457 12.837 12.9519 13.2064C12.5465 13.5874 12.0136 13.7778 11.3534 13.7778H11.336C10.699 13.7778 10.1835 13.5874 9.78971 13.2064C9.39588 12.8255 9.19897 12.3464 9.19897 11.7692ZM9.42484 26.9207V15.3536H13.282V26.9207H9.42484ZM15.4191 26.9207H19.2762V20.4618C19.2762 20.0578 19.3225 19.7461 19.4152 19.5267C19.5773 19.1342 19.8235 18.8023 20.1536 18.5311C20.4837 18.2598 20.8978 18.1241 21.3959 18.1241C22.6932 18.1241 23.3418 18.9957 23.3418 20.7389V26.9207H27.199V20.2887C27.199 18.5801 26.7936 17.2843 25.9828 16.4012C25.1719 15.5181 24.1005 15.0765 22.7685 15.0765C21.2743 15.0765 20.1102 15.7172 19.2762 16.9986V17.0332H19.2588L19.2762 16.9986V15.3536H15.4191C15.4422 15.723 15.4538 16.8716 15.4538 18.7995C15.4538 20.7273 15.4422 23.4344 15.4191 26.9207Z" fill="#008DF1"/>
</svg>
