<svg width="100%" height="100%" viewBox="0 0 1793 185" version="1.1" xmlns="http://www.w3.org/2000/svg" xml:space="preserve" style="fill-rule:evenodd;clip-rule:evenodd;stroke-linejoin:round;stroke-miterlimit:2;">
    <g transform="matrix(4.16667,0,0,4.16667,-143.333,0)">
        <g transform="matrix(1,0,0,1,-33.795,-66.696)">
            <path d="M87.035,110.514L68.195,110.514L68.195,105.471L70.504,105.471C71.416,105.471 72.267,104.375 72.267,103.586L72.267,75.083C72.267,74.292 71.416,73.198 70.504,73.198L68.195,73.198L68.195,67.972L86.367,67.972C96.942,67.972 103.445,71.983 103.445,81.282C103.445,90.46 96.881,94.593 86.124,94.593L81.748,94.593L81.748,105.471L87.035,105.471L87.035,110.514ZM81.748,73.563L81.748,89.304L86.124,89.304C92.262,89.304 93.721,85.962 93.721,81.403C93.721,76.844 92.262,73.563 86.124,73.563L81.748,73.563Z" style="fill:#FFFFFF;fill-rule:nonzero;"/>
        </g>
        <g transform="matrix(1,0,0,1,-33.795,-66.696)">
            <path d="M122.709,110.514L105.752,110.514L105.752,105.471L107.88,105.471C108.609,105.471 109.399,104.619 109.399,103.952L109.399,85.596C109.399,84.929 108.609,83.956 107.88,83.956L105.509,83.956L105.509,78.608L116.388,78.608C117.421,78.608 118.09,79.518 118.211,83.227C120.339,80.614 122.831,78.303 127.024,78.303C127.692,78.303 128.36,78.425 128.968,78.608L128.968,85.171L127.45,85.171C122.831,85.171 120.035,86.143 118.272,87.116L118.272,105.471L122.709,105.471L122.709,110.514Z" style="fill:#FFFFFF;fill-rule:nonzero;"/>
        </g>
        <g transform="matrix(1,0,0,1,-33.795,-66.696)">
            <path d="M147.748,110.514L131.216,110.514L131.216,105.471L133.526,105.471C134.255,105.471 134.984,104.619 134.984,103.952L134.984,85.596C134.984,84.929 134.255,83.956 133.526,83.956L130.973,83.956L130.973,78.608L142.46,78.608C143.432,78.608 143.918,79.581 143.918,82.011L143.918,103.952C143.918,104.68 144.709,105.471 145.438,105.471L147.748,105.471L147.748,110.514ZM139.36,76.116C136.686,76.116 134.559,74.05 134.559,71.436C134.559,68.823 136.686,66.696 139.36,66.696C142.035,66.696 144.162,68.823 144.162,71.436C144.162,74.05 142.035,76.116 139.36,76.116Z" style="fill:#FFFFFF;fill-rule:nonzero;"/>
        </g>
        <g transform="matrix(1,0,0,1,-33.795,-66.696)">
            <path d="M166.586,110.514L158.929,110.514L148.961,85.657C148.597,84.624 147.868,83.956 147.017,83.956L145.862,83.956L145.862,78.608L161.36,78.608L161.36,83.956L157.349,83.956L163.852,102.188L163.973,102.188L169.139,87.968C169.99,85.596 170.233,83.956 167.559,83.956L166.586,83.956L166.586,78.608L180.079,78.608L180.079,83.956L179.045,83.956C178.073,83.956 177.222,84.684 176.736,85.841L166.586,110.514Z" style="fill:#FFFFFF;fill-rule:nonzero;"/>
        </g>
        <g transform="matrix(1,0,0,1,-33.795,-66.696)">
            <path d="M205.907,110.94C202.199,110.94 200.315,109.481 199.525,106.928C197.155,109.846 194.177,110.879 190.287,110.879C184.331,110.879 180.077,107.598 180.077,101.276C180.077,94.593 185.304,91.554 192.658,91.554C195.332,91.554 197.155,91.796 199.161,92.282L199.161,88.94C199.161,85.718 197.398,84.2 193.63,84.2C189.801,84.2 187.856,85.657 186.276,87.055L182.204,87.055L182.204,80.552C185.182,79.216 189.193,78.122 195.393,78.122C203.658,78.122 208.034,80.796 208.034,88.089L208.034,103.952C208.034,104.68 208.824,105.471 209.553,105.471L211.255,105.471L211.255,109.725C210.04,110.454 208.216,110.94 205.907,110.94ZM194.481,96.233C190.895,96.233 188.707,97.692 188.707,100.913C188.707,104.133 190.591,105.653 193.569,105.653C195.818,105.653 197.641,104.801 199.161,103.405L199.161,96.597C197.763,96.354 196.183,96.233 194.481,96.233Z" style="fill:#FFFFFF;fill-rule:nonzero;"/>
        </g>
        <g transform="matrix(1,0,0,1,-33.795,-66.696)">
            <path d="M223.651,111C217.513,111 213.806,109.055 213.806,102.432L213.806,83.956L210.038,83.956L210.038,78.608L213.806,78.608L213.806,70.098L222.679,70.098L222.679,78.608L229.122,78.608L229.122,83.956L222.679,83.956L222.679,101.459C222.679,104.862 223.895,105.471 227.177,105.471L229.364,105.471L229.364,110.211C228.027,110.635 226.144,111 223.651,111Z" style="fill:#FFFFFF;fill-rule:nonzero;"/>
        </g>
        <g transform="matrix(1,0,0,1,-33.795,-66.696)">
            <path d="M285.944,110.514L270.448,110.514L270.448,105.471L273.851,105.471L273.851,88.88C273.851,85.78 272.817,85.05 270.022,85.05C267.772,85.05 265.343,85.536 263.337,86.204L263.337,105.471L266.802,105.471L266.802,110.514L251.06,110.514L251.06,105.471L254.463,105.471L254.463,88.88C254.463,85.78 253.43,85.05 250.634,85.05C248.386,85.05 245.955,85.536 243.949,86.204L243.949,105.471L247.414,105.471L247.414,110.514L231.429,110.514L231.429,105.471L233.557,105.471C234.286,105.471 235.076,104.619 235.076,103.952L235.076,85.596C235.076,84.929 234.286,83.956 233.557,83.956L231.186,83.956L231.186,78.608L242.065,78.608C243.098,78.608 243.706,79.458 243.888,82.802C246.562,80.552 250.391,78.122 255.253,78.122C258.717,78.122 261.877,79.276 262.972,83.104C265.706,80.735 269.597,78.122 274.642,78.122C278.896,78.122 282.724,79.884 282.724,86.083L282.724,103.952C282.724,104.68 283.515,105.471 284.243,105.471L285.944,105.471L285.944,110.514Z" style="fill:#FFFFFF;fill-rule:nonzero;"/>
        </g>
        <g transform="matrix(1,0,0,1,-33.795,-66.696)">
            <path d="M312.743,110.94C309.036,110.94 307.153,109.481 306.362,106.928C303.993,109.846 301.015,110.879 297.124,110.879C291.169,110.879 286.915,107.598 286.915,101.276C286.915,94.593 292.142,91.554 299.495,91.554C302.169,91.554 303.993,91.796 305.997,92.282L305.997,88.94C305.997,85.718 304.235,84.2 300.468,84.2C296.638,84.2 294.694,85.657 293.114,87.055L289.042,87.055L289.042,80.552C292.019,79.216 296.03,78.122 302.23,78.122C310.495,78.122 314.872,80.796 314.872,88.089L314.872,103.952C314.872,104.68 315.661,105.471 316.39,105.471L318.093,105.471L318.093,109.725C316.876,110.454 315.054,110.94 312.743,110.94ZM301.317,96.233C297.733,96.233 295.544,97.692 295.544,100.913C295.544,104.133 297.429,105.653 300.407,105.653C302.655,105.653 304.479,104.801 305.997,103.405L305.997,96.597C304.601,96.354 303.02,96.233 301.317,96.233ZM307.456,76.116C304.903,76.116 302.897,74.171 302.897,71.678C302.897,69.249 304.903,67.243 307.456,67.243C310.009,67.243 312.015,69.249 312.015,71.678C312.015,74.171 310.009,76.116 307.456,76.116ZM295.788,76.116C293.235,76.116 291.229,74.171 291.229,71.678C291.229,69.249 293.235,67.243 295.788,67.243C298.341,67.243 300.347,69.249 300.347,71.678C300.347,74.171 298.341,76.116 295.788,76.116Z" style="fill:#FFFFFF;fill-rule:nonzero;"/>
        </g>
        <g transform="matrix(1,0,0,1,-33.795,-66.696)">
            <path d="M353.644,110.514L344.954,110.514L336.263,97.63L332.677,101.094L332.677,105.471L335.776,105.471L335.776,110.514L320.157,110.514L320.157,105.471L322.284,105.471C323.013,105.471 323.804,104.619 323.804,103.952L323.804,74.839C323.804,74.171 323.013,73.198 322.284,73.198L319.974,73.198L319.974,67.972L331.157,67.972C332.13,67.972 332.677,68.702 332.677,70.038L332.677,94.227L340.698,86.388C341.671,85.354 341.429,83.956 340.212,83.956L338.997,83.956L338.997,78.608L353.401,78.608L353.401,83.956L351.7,83.956C350.849,83.956 349.755,84.503 349.147,85.11L342.341,91.735L350.667,103.768C351.517,104.985 352.186,105.471 353.036,105.471L353.644,105.471L353.644,110.514Z" style="fill:#FFFFFF;fill-rule:nonzero;"/>
        </g>
        <g transform="matrix(1,0,0,1,-33.795,-66.696)">
            <path d="M372.483,110.514L355.708,110.514L355.708,105.471L358.079,105.471C358.808,105.471 359.599,104.619 359.599,103.952L359.599,74.839C359.599,74.171 358.808,73.198 358.079,73.198L355.526,73.198L355.526,67.972L366.952,67.972C367.985,67.972 368.472,68.702 368.472,70.038L368.472,103.952C368.472,104.68 369.323,105.471 369.991,105.471L372.483,105.471L372.483,110.514Z" style="fill:#FFFFFF;fill-rule:nonzero;"/>
        </g>
        <g transform="matrix(1,0,0,1,-33.795,-66.696)">
            <path d="M399.345,110.94C395.638,110.94 393.753,109.481 392.964,106.928C390.593,109.846 387.614,110.879 383.726,110.879C377.769,110.879 373.515,107.598 373.515,101.276C373.515,94.593 378.741,91.554 386.095,91.554C388.77,91.554 390.593,91.796 392.599,92.282L392.599,88.94C392.599,85.718 390.837,84.2 387.067,84.2C383.239,84.2 381.294,85.657 379.714,87.055L375.642,87.055L375.642,80.552C378.62,79.216 382.632,78.122 388.831,78.122C397.097,78.122 401.472,80.796 401.472,88.089L401.472,103.952C401.472,104.68 402.263,105.471 402.991,105.471L404.692,105.471L404.692,109.725C403.478,110.454 401.653,110.94 399.345,110.94ZM387.919,96.233C384.333,96.233 382.145,97.692 382.145,100.913C382.145,104.133 384.028,105.653 387.007,105.653C389.257,105.653 391.079,104.801 392.599,103.405L392.599,96.597C391.2,96.354 389.62,96.233 387.919,96.233Z" style="fill:#FFFFFF;fill-rule:nonzero;"/>
        </g>
        <g transform="matrix(1,0,0,1,-33.795,-66.696)">
            <path d="M423.714,110.514L406.757,110.514L406.757,105.471L408.884,105.471C409.614,105.471 410.403,104.619 410.403,103.952L410.403,85.596C410.403,84.929 409.614,83.956 408.884,83.956L406.515,83.956L406.515,78.608L417.393,78.608C418.427,78.608 419.095,79.518 419.216,83.227C421.343,80.614 423.835,78.303 428.028,78.303C428.698,78.303 429.366,78.425 429.974,78.608L429.974,85.171L428.454,85.171C423.835,85.171 421.04,86.143 419.276,87.116L419.276,105.471L423.714,105.471L423.714,110.514Z" style="fill:#FFFFFF;fill-rule:nonzero;"/>
        </g>
        <g transform="matrix(1,0,0,1,-33.795,-66.696)">
            <path d="M446.626,110.94C435.563,110.94 430.034,104.741 430.034,94.714C430.034,84.442 436.415,78.122 446.018,78.122C455.56,78.122 460.544,82.983 460.544,93.802C460.544,94.895 460.421,95.929 460.421,96.233L439.089,96.233C439.454,102.553 442.249,105.471 447.354,105.471C451.306,105.471 452.702,104.073 454.345,102.006L459.388,102.006L459.388,107.84C456.774,109.42 453.312,110.94 446.626,110.94ZM446.018,83.409C442.31,83.409 439.88,85.718 439.21,91.188L451.669,91.188C451.366,85.596 449.665,83.409 446.018,83.409Z" style="fill:#FFFFFF;fill-rule:nonzero;"/>
        </g>
        <g transform="matrix(1,0,0,1,-33.795,-66.696)">
            <path d="M498.345,110.514L482.603,110.514L482.603,105.471L486.251,105.471L486.251,89.122C486.251,85.962 485.034,85.05 482.056,85.05C479.503,85.05 477.134,85.596 475.067,86.264L475.067,105.471L478.774,105.471L478.774,110.514L462.548,110.514L462.548,105.471L464.675,105.471C465.403,105.471 466.194,104.619 466.194,103.952L466.194,85.596C466.194,84.929 465.403,83.956 464.675,83.956L462.304,83.956L462.304,78.608L473.183,78.608C474.216,78.608 474.823,79.458 475.007,82.741C477.985,79.944 482.056,78.122 486.858,78.122C491.294,78.122 495.124,79.884 495.124,86.083L495.124,103.952C495.124,104.68 495.913,105.471 496.644,105.471L498.345,105.471L498.345,110.514Z" style="fill:#FFFFFF;fill-rule:nonzero;"/>
        </g>
    </g>
</svg>
