<svg width="37" height="37" viewBox="0 0 37 37" fill="none" xmlns="http://www.w3.org/2000/svg">
<path d="M21.226 11.0506V11.0474H22.07L22.3784 11.109C22.584 11.1489 22.7707 11.2013 22.9384 11.2662C23.1061 11.331 23.2684 11.4067 23.4253 11.4931C23.5822 11.5795 23.7245 11.6676 23.8522 11.7573C23.9788 11.8459 24.0924 11.9399 24.193 12.0393C24.2926 12.1398 24.4478 12.1657 24.6588 12.1171C24.8698 12.0685 25.0971 12.001 25.3405 11.9145C25.584 11.8281 25.8248 11.7308 26.0628 11.6228C26.3009 11.5147 26.4459 11.4461 26.4978 11.4169C26.5487 11.3867 26.5757 11.3705 26.579 11.3683L26.5822 11.3634L26.5984 11.3553L26.6147 11.3472L26.6309 11.3391L26.6471 11.331L26.6504 11.3261L26.6552 11.3229L26.6601 11.3197L26.6634 11.3148L26.6796 11.3099L26.6958 11.3067L26.6926 11.331L26.6877 11.3553L26.6796 11.3796L26.6715 11.4039L26.6634 11.4202L26.6552 11.4364L26.6471 11.4607C26.6417 11.4769 26.6363 11.4985 26.6309 11.5255C26.6255 11.5525 26.5741 11.6606 26.4767 11.8497C26.3793 12.0388 26.2576 12.2306 26.1115 12.4251C25.9654 12.6196 25.8345 12.7665 25.7187 12.8659C25.6019 12.9664 25.5245 13.0367 25.4866 13.0767C25.4488 13.1177 25.4028 13.1555 25.3487 13.1901L25.2675 13.2436L25.2513 13.2517L25.235 13.2598L25.2318 13.2647L25.2269 13.2679L25.2221 13.2712L25.2188 13.276L25.2026 13.2841L25.1864 13.2922L25.1831 13.2971L25.1782 13.3003L25.1734 13.3036L25.1701 13.3084L25.1669 13.3133L25.162 13.3165L25.1571 13.3198L25.1539 13.3246H25.235L25.6895 13.2274C25.9925 13.1626 26.2819 13.0842 26.5579 12.9924L26.9961 12.8465L27.0448 12.8303L27.0691 12.8222L27.0854 12.8141L27.1016 12.806L27.1178 12.7979L27.1341 12.7898L27.1665 12.7849L27.199 12.7817V12.8141L27.1909 12.8173L27.1827 12.8222L27.1795 12.827L27.1746 12.8303L27.1698 12.8335L27.1665 12.8384L27.1633 12.8433L27.1584 12.8465L27.1535 12.8497L27.1503 12.8546L27.1471 12.8595L27.1422 12.8627L27.1341 12.8789L27.1259 12.8951L27.1211 12.8984C27.1189 12.9016 27.0502 12.9934 26.9149 13.1739C26.7797 13.3554 26.7066 13.4473 26.6958 13.4494C26.685 13.4527 26.6698 13.4689 26.6504 13.4981C26.632 13.5283 26.5173 13.6488 26.3063 13.8595C26.0953 14.0702 25.8886 14.2577 25.6863 14.422C25.4829 14.5873 25.38 14.7904 25.3779 15.0314C25.3746 15.2713 25.3622 15.5425 25.3405 15.8451C25.3189 16.1476 25.2783 16.4745 25.2188 16.8257C25.1593 17.1768 25.0673 17.574 24.9429 18.017C24.8185 18.46 24.667 18.8922 24.4884 19.3137C24.3099 19.7351 24.1232 20.1133 23.9285 20.4482C23.7337 20.7832 23.5552 21.0669 23.3928 21.2992C23.2305 21.5315 23.0655 21.7503 22.8978 21.9556C22.7301 22.1609 22.518 22.3922 22.2616 22.6493C22.004 22.9054 21.8634 23.0459 21.8396 23.0708C21.8147 23.0945 21.7086 23.1832 21.5214 23.3366C21.3353 23.4911 21.1351 23.6456 20.9209 23.8001C20.7077 23.9536 20.5119 24.0816 20.3333 24.1843C20.1548 24.2869 19.9395 24.4042 19.6873 24.536C19.4363 24.6689 19.1647 24.7921 18.8726 24.9056C18.5804 25.019 18.272 25.1244 17.9474 25.2216C17.6228 25.3189 17.309 25.3945 17.006 25.4485C16.703 25.5026 16.3595 25.5485 15.9753 25.5863L15.3992 25.643V25.6511H14.3442V25.643L14.2062 25.6349C14.1142 25.6295 14.0385 25.6241 13.979 25.6187C13.9195 25.6133 13.6949 25.5836 13.3054 25.5296C12.9158 25.4756 12.6102 25.4215 12.3883 25.3675C12.1665 25.3135 11.8365 25.2108 11.3983 25.0595C10.96 24.9083 10.5851 24.7553 10.2735 24.6008C9.96291 24.4474 9.76814 24.3501 9.68915 24.3091C9.61124 24.2691 9.52359 24.2194 9.42621 24.16L9.28013 24.0708L9.2769 24.066L9.27201 24.0627L9.26714 24.0595L9.2639 24.0546L9.24767 24.0465L9.23144 24.0384L9.22821 24.0335L9.22332 24.0303L9.21845 24.0271L9.21521 24.0222L9.21198 24.0173L9.20709 24.0141H9.19897V23.9817L9.21521 23.9849L9.23144 23.9898L9.30448 23.9979C9.35317 24.0033 9.48572 24.0114 9.70213 24.0222C9.91855 24.033 10.1485 24.033 10.3919 24.0222C10.6354 24.0114 10.8843 23.9871 11.1386 23.9493C11.3928 23.9114 11.6931 23.8466 12.0394 23.7548C12.3856 23.6629 12.7038 23.5538 12.9938 23.4273C13.2827 23.2999 13.4882 23.2048 13.6105 23.1421C13.7317 23.0805 13.9167 22.9659 14.1656 22.7985L14.5389 22.5472L14.5422 22.5424L14.547 22.5391L14.5519 22.5359L14.5552 22.531L14.5584 22.5262L14.5633 22.5229L14.5682 22.5197L14.5714 22.5148L14.5876 22.5099L14.6038 22.5067L14.6071 22.4905L14.612 22.4743L14.6168 22.471L14.6201 22.4662L14.4902 22.4581C14.4037 22.4527 14.3198 22.4473 14.2386 22.4419C14.1575 22.4365 14.0304 22.4122 13.8572 22.3689C13.6841 22.3257 13.4975 22.2609 13.2973 22.1744C13.0971 22.088 12.9023 21.9853 12.713 21.8665C12.5236 21.7476 12.3867 21.6487 12.3023 21.5699C12.219 21.492 12.1108 21.3818 11.9777 21.2392C11.8457 21.0955 11.731 20.948 11.6336 20.7967C11.5362 20.6454 11.4432 20.4709 11.3544 20.2732L11.2197 19.9782L11.2116 19.9539L11.2035 19.9296L11.1986 19.9134L11.1954 19.8972L11.2197 19.9004L11.2441 19.9053L11.4226 19.9296C11.5416 19.9458 11.7283 19.9512 11.9826 19.9458C12.2369 19.9404 12.4127 19.9296 12.5101 19.9134C12.6075 19.8972 12.667 19.8863 12.6886 19.8809L12.7211 19.8728L12.7616 19.8647L12.8022 19.8566L12.8055 19.8518L12.8103 19.8485L12.8152 19.8453L12.8185 19.8404L12.786 19.8323L12.7535 19.8242L12.7211 19.8161L12.6886 19.808L12.6561 19.7999C12.6345 19.7945 12.5966 19.7837 12.5425 19.7675C12.4884 19.7513 12.3424 19.6918 12.1043 19.5892C11.8663 19.4865 11.6769 19.3866 11.5362 19.2893C11.3952 19.1918 11.2607 19.0851 11.1337 18.97C11.0071 18.8533 10.8681 18.7031 10.7166 18.5194C10.5651 18.3357 10.4298 18.1223 10.3108 17.8792C10.1918 17.6361 10.1025 17.4038 10.043 17.1822C9.9837 16.962 9.94459 16.7369 9.92613 16.5096L9.8969 16.1692L9.91313 16.1725L9.92936 16.1773L9.94559 16.1854L9.96182 16.1935L9.97805 16.2016L9.99429 16.2097L10.2459 16.3232C10.4136 16.3988 10.6219 16.4637 10.8708 16.5177C11.1196 16.5717 11.2684 16.6014 11.3171 16.6068L11.3901 16.615H11.5362L11.533 16.6101L11.5281 16.6068L11.5232 16.6036L11.52 16.5987L11.5168 16.5939L11.5119 16.5906L11.507 16.5874L11.5038 16.5825L11.4875 16.5744L11.4713 16.5663L11.4681 16.5615L11.4632 16.5582L11.4583 16.555L11.4551 16.5501L11.4388 16.542L11.4226 16.5339L11.4194 16.529C11.4161 16.5269 11.3696 16.4923 11.2798 16.4253C11.191 16.3572 11.098 16.2692 11.0006 16.1611C10.9032 16.0531 10.8058 15.9396 10.7084 15.8207C10.6109 15.7016 10.524 15.5742 10.4487 15.4398C10.373 15.3048 10.2929 15.133 10.2085 14.9244C10.1252 14.7169 10.0619 14.5079 10.0186 14.2971C9.97536 14.0864 9.95101 13.8784 9.94559 13.6731C9.94019 13.4678 9.94559 13.2922 9.96182 13.1464C9.97805 13.0005 10.0105 12.8357 10.0592 12.652C10.1079 12.4683 10.1782 12.2738 10.2702 12.0685L10.4082 11.7605L10.4163 11.7362L10.4244 11.7119L10.4293 11.7087L10.4325 11.7038L10.4358 11.6989L10.4406 11.6957L10.4455 11.6989L10.4487 11.7038L10.452 11.7087L10.4569 11.7119L10.4618 11.7151L10.465 11.72L10.4682 11.7249L10.4731 11.7281L10.4812 11.7443L10.4893 11.7605L10.4942 11.7638L10.4974 11.7686L10.7166 12.0118C10.8626 12.1738 11.0358 12.3548 11.2359 12.5547C11.4361 12.7546 11.547 12.8584 11.5687 12.8659C11.5903 12.8746 11.6174 12.8994 11.6498 12.9405C11.6823 12.9805 11.7905 13.0761 11.9744 13.2274C12.1584 13.3787 12.3992 13.5543 12.6967 13.7542C12.9943 13.9541 13.3243 14.1513 13.6868 14.3458C14.0493 14.5403 14.4388 14.7159 14.8554 14.8725C15.272 15.0292 15.5642 15.1319 15.7319 15.1805C15.8996 15.2291 16.1864 15.2913 16.5921 15.3669C16.9979 15.4425 17.3036 15.4912 17.5092 15.5128C17.7148 15.5344 17.8554 15.5468 17.9312 15.5501L18.0448 15.5533L18.0416 15.529L18.0367 15.5047L18.0042 15.3021C17.9826 15.167 17.9717 14.9779 17.9717 14.7348C17.9717 14.4917 17.9907 14.2674 18.0286 14.0621C18.0664 13.8568 18.1232 13.6488 18.199 13.4381C18.2747 13.2274 18.3489 13.0583 18.4213 12.9308C18.4949 12.8044 18.5912 12.6601 18.7102 12.498C18.8293 12.3359 18.9835 12.1685 19.1728 11.9956C19.3622 11.8227 19.5786 11.6687 19.8221 11.5336C20.0655 11.3986 20.2901 11.2959 20.4956 11.2257C20.7012 11.1554 20.8744 11.1095 21.015 11.0879C21.1557 11.0663 21.226 11.0538 21.226 11.0506Z" fill="#008DF1"/>
</svg>
