<svg width="37" height="37" viewBox="0 0 37 37" fill="none" xmlns="http://www.w3.org/2000/svg">
<path d="M18.6377 25.3288L14.5755 25.2529C13.2603 25.2264 11.9418 25.2792 10.6523 25.0052C8.69074 24.5956 8.55178 22.5877 8.40637 20.9035C8.20601 18.5357 8.28357 16.1248 8.66168 13.7768C8.87514 12.4592 9.71517 11.6731 11.0142 11.5875C15.3996 11.277 19.8141 11.3138 24.1897 11.4587C24.6519 11.472 25.1172 11.5445 25.5728 11.6272C27.8221 12.0301 27.877 14.3055 28.0228 16.2209C28.1682 18.1562 28.1068 20.1013 27.8289 22.0234C27.6059 23.6148 27.1793 24.9493 25.3789 25.0781C23.1232 25.2466 20.9192 25.3822 18.6571 25.339C18.6572 25.3288 18.6442 25.3288 18.6377 25.3288ZM16.2496 21.2998C17.9495 20.3024 19.6169 19.3216 21.3071 18.3309C19.604 17.3335 17.9397 16.3527 16.2496 15.362V21.2998Z" fill="#008DF1"/>
</svg>
