<svg style="color:#FF6666" width="100%" height="100%" viewBox="0 0 100 34" fill="none" xmlns="http://www.w3.org/2000/svg"><g clip-path="url(#clip0_2223_6692)"><path d="M76.57 25.3947H70.896C70.34 25.3947 69.825 25.1204 69.533 24.67L63.265 14.969L61.002 17.5166V23.8719C61.002 24.7138 60.286 25.3957 59.402 25.3957H55.602C54.718 25.3957 54.002 24.7138 54.002 23.8719V2.15662C54.002 1.31472 54.718 0.632812 55.602 0.632812H59.402C60.286 0.632812 61.002 1.31472 61.002 2.15662V8.51091L64.528 4.54234L67.522 1.17186C67.826 0.829955 68.273 0.632812 68.743 0.632812H74.276C74.957 0.632812 75.327 1.39186 74.887 1.8871L67.896 9.75567L77.251 24.2338C77.579 24.7414 77.196 25.3947 76.57 25.3947Z" fill="currentColor"></path><path d="M22 21.2042V23.8709C22 24.7128 21.284 25.3947 20.4 25.3947H1.6C0.716 25.3947 0 24.7128 0 23.8709V20.7004C0 20.3404 0.134 19.9909 0.379 19.7166L0.411 19.6814L12.256 6.3471H2.267C1.383 6.3471 0.667 5.66519 0.667 4.82329V2.15662C0.667 1.31472 1.383 0.632812 2.267 0.632812H20.067C20.951 0.632812 21.667 1.31472 21.667 2.15662V5.3271C21.667 5.6871 21.533 6.03662 21.288 6.31186L21.256 6.34805L9.41 19.6804H20.4C21.284 19.6804 22 20.3623 22 21.2042Z" fill="currentColor"></path><path d="M100 2.15662V16.5052C100 21.7652 95.523 26.029 90 26.029H88C82.477 26.029 78 21.7652 78 16.5052V2.15662C78 1.31472 78.716 0.632812 79.6 0.632812H84.4C85.284 0.632812 86 1.31472 86 2.15662V15.5528C86 16.3423 86.336 17.0566 86.879 17.5728C87.422 18.09 88.172 18.41 89 18.41C89.828 18.41 90.578 18.09 91.121 17.5728C91.664 17.0557 92 16.3414 92 15.5528V2.15662C92 1.31472 92.716 0.632812 93.6 0.632812H98.4C99.284 0.632812 100 1.31472 100 2.15662Z" fill="currentColor"></path><path d="M46.3053 22.1566C46.3053 22.17 46.3053 22.1842 46.3053 22.1976C46.3053 22.2081 46.3053 22.2185 46.3043 22.229C46.3043 22.2319 46.3043 22.2347 46.3043 22.2376C46.2013 24.3395 42.0763 26.03 37.0013 26.03C31.9263 26.03 27.8013 24.3395 27.6983 22.2376C27.6983 22.2347 27.6983 22.2319 27.6983 22.229C27.6983 22.2185 27.6983 22.2081 27.6973 22.1976C27.6973 22.1842 27.6973 22.1709 27.6973 22.1566C27.6973 22.1423 27.6973 22.13 27.6973 22.1157C27.6973 22.1052 27.6973 22.0947 27.6983 22.0842C27.6983 22.0814 27.6983 22.0785 27.6983 22.0757C27.7423 21.2719 28.4413 20.6328 29.2963 20.6328H44.7063C45.5613 20.6328 46.2603 21.2719 46.3043 22.0757C46.3043 22.0785 46.3043 22.0814 46.3043 22.0842C46.3043 22.0947 46.3053 22.1052 46.3053 22.1157C46.3053 22.129 46.3053 22.1423 46.3053 22.1566Z" fill="currentColor"></path><path d="M50.667 13.0162V13.9686C50.667 16.5981 48.429 18.7305 45.667 18.7305H28.334C25.573 18.7305 23.334 16.5981 23.334 13.9686V13.0162C23.334 5.82762 29.452 0 37 0C44.548 0 50.667 5.82762 50.667 13.0162Z" fill="currentColor"></path><path d="M2.02798 33.3322V29.3627H0.333984V28.5703H4.66699V29.3627H2.97298V33.3322H2.02798Z" fill="white"></path><path d="M7.5 33.3322V28.5703H9.157C9.472 28.5703 9.739 28.616 9.959 28.7056C10.179 28.796 10.356 28.9122 10.491 29.0551C10.626 29.1979 10.725 29.3513 10.787 29.5151C10.849 29.6789 10.881 29.8379 10.881 29.9903C10.881 30.2903 10.811 30.5551 10.671 30.7865C10.531 31.017 10.321 31.2017 10.041 31.3398L11.195 33.3313H10.131L9.119 31.4532H8.407V33.3313H7.5V33.3322ZM8.407 30.7122H9.164C9.404 30.7122 9.59 30.6456 9.722 30.5122C9.854 30.3789 9.921 30.217 9.921 30.0265C9.921 29.8217 9.851 29.6551 9.711 29.5265C9.571 29.3979 9.389 29.3341 9.164 29.3341H8.407V30.7122Z" fill="white"></path><path d="M13.5723 33.3322L15.4693 28.5703H16.4443L18.3413 33.3322H17.2923L16.8573 32.1255H14.9983L14.5633 33.3322H13.5733H13.5723ZM15.2593 31.3836H16.5863L15.9263 29.5341L15.2593 31.3836Z" fill="white"></path><path d="M21.9469 33.3322L20.0879 28.5703H21.1369L22.4639 32.2046L23.7909 28.5703H24.7809L22.9219 33.3322H21.9469Z" fill="white"></path><path d="M27.5088 33.3322V28.5703H30.7468V29.3627H28.4528V30.4836H30.1398V31.2836H28.4528V32.5256H30.9188V33.3322H27.5078H27.5088Z" fill="white"></path><path d="M33.9238 33.3322V28.5703H34.8688V32.5322H37.3348V33.3322H33.9238Z" fill="white"></path></g><defs><clipPath id="clip0_2223_6692"><rect width="100" height="33.3333" fill="white"></rect></clipPath></defs></svg>